<?xml version="1.0" standalone="no"?>
<!DOCTYPE svg PUBLIC "-//W3C//DTD SVG 20010904//EN"
 "http://www.w3.org/TR/2001/REC-SVG-20010904/DTD/svg10.dtd">
<svg version="1.0" xmlns="http://www.w3.org/2000/svg"
 width="16.000000pt" height="16.000000pt" viewBox="0 0 16.000000 16.000000"
 preserveAspectRatio="xMidYMid meet">
<metadata>
Created by potrace 1.11, written by Peter Selinger 2001-2013
</metadata>
<g transform="translate(0.000000,16.000000) scale(0.008333,-0.008333)"
fill="#000000" stroke="none">
<path d="M1221 1488 c-98 -28 -159 -142 -178 -330 -9 -83 -8 -363 0 -459 24
-266 151 -407 304 -339 41 18 48 19 63 5 23 -21 47 -19 60 5 11 20 10 35 -10
170 -5 36 -11 85 -13 108 -3 24 -12 51 -20 60 -19 19 -75 18 -134 -1 -54 -19
-23 -76 39 -71 43 4 46 -2 54 -96 6 -65 6 -67 -26 -93 -36 -31 -93 -36 -140
-12 -44 23 -65 63 -97 190 -9 34 -10 395 -2 490 10 108 24 173 54 240 25 57
54 77 105 72 40 -4 60 7 60 34 0 36 -50 47 -119 27z"/>
<path d="M460 1460 c-6 -11 -9 -24 -6 -28 2 -4 7 -26 10 -48 4 -22 8 -49 10
-61 5 -23 16 -88 21 -118 1 -11 10 -65 19 -120 9 -55 19 -113 22 -130 2 -16 7
-42 10 -57 3 -15 7 -39 9 -55 11 -85 61 -362 78 -428 20 -81 56 -69 72 23 2
15 7 43 10 62 11 57 19 115 34 230 13 94 14 103 35 275 20 158 25 209 31 275
3 30 9 85 13 123 8 65 8 68 -14 73 -12 3 -32 1 -43 -6 -18 -9 -21 -20 -22 -88
-1 -42 -2 -88 -3 -102 -2 -14 -6 -62 -10 -107 -4 -46 -9 -91 -10 -100 -2 -10
-7 -47 -11 -83 -4 -36 -9 -74 -11 -85 -2 -11 -11 -75 -20 -143 -9 -67 -18
-121 -20 -119 -2 2 -6 21 -9 43 -4 21 -15 91 -25 154 -10 63 -21 133 -25 155
-14 92 -18 117 -46 258 -42 209 -68 265 -99 207z"/>
</g>
</svg>
