<?xml version="1.0" encoding="UTF-8"?>
<svg width="209px" height="316px" viewBox="0 0 209 316" version="1.1" xmlns="http://www.w3.org/2000/svg" xmlns:xlink="http://www.w3.org/1999/xlink">
    <!-- Generator: Sketch 53.1 (72631) - https://sketchapp.com -->
    <title>Pin</title>
    <desc>Created with Sketch.</desc>
    <g id="Pin" stroke="none" stroke-width="1" fill="none" fill-rule="evenodd">
        <g id="Group" transform="translate(0.000000, 4.000000)" fill="#FFFFFF" fill-rule="nonzero">
            <path d="M104.581,163.275 C71.814,163.275 45.153,136.618 45.153,103.851 C45.153,71.08 71.814,44.419 104.581,44.419 C137.348,44.419 164.008,71.08 164.008,103.851 C164.008,136.619 137.347,163.275 104.581,163.275 Z M104.581,52.653 C76.352,52.653 53.386,75.619 53.386,103.852 C53.386,132.081 76.352,155.042 104.581,155.042 C132.809,155.042 155.775,132.08 155.775,103.852 C155.775,75.619 132.809,52.653 104.581,52.653 Z" id="Shape"></path>
            <path d="M104.588,308.658 C104.584,308.658 104.584,308.658 104.58,308.658 C88.423,308.642 47.07,232.005 45.317,228.741 C31.986,203.929 0.984,142.09 0.984,103.851 C0.984,46.731 47.455,0.256 104.579,0.252 C161.703,0.256 208.178,46.731 208.178,103.851 C208.178,142.085 177.176,203.929 163.845,228.741 C162.099,232.005 120.741,308.643 104.588,308.658 Z M104.584,8.485 C51.999,8.489 9.218,51.27 9.218,103.851 C9.218,164.686 91.254,296.285 104.584,300.393 C117.91,296.285 199.946,164.686 199.946,103.851 C199.947,51.27 157.166,8.489 104.584,8.485 Z" id="Shape"></path>
        </g>
    </g>
</svg>