<?xml version="1.0" ?><!DOCTYPE svg  PUBLIC '-//W3C//DTD SVG 1.1//EN'  'http://www.w3.org/Graphics/SVG/1.1/DTD/svg11.dtd'><svg style="padding: 4px" enable-background="new 0 0 144.083 144" height="144px" id="mail" version="1.1" viewBox="0 0 144.083 144" width="144.083px" xml:space="preserve" xmlns="http://www.w3.org/2000/svg" xmlns:xlink="http://www.w3.org/1999/xlink"><path d="M61.041,0.166 C27.498,0.166 0.208,27.456 0.208,61 C0.208,94.544 27.498,121.834 61.041,121.834 C94.585,121.834 121.875,94.544 121.875,61 C121.875,27.456 94.584,0.166 61.041,0.166 Z M61.041,115.834 C30.806,115.834 6.208,91.235 6.208,61 C6.208,30.765 30.806,6.166 61.041,6.166 C91.276,6.166 115.875,30.765 115.875,61 C115.875,91.235 91.276,115.834 61.041,115.834 Z" id="Shape"/><path d="M83.822,44.5538437 C83.6554513,44.7434789 83.4736486,44.9215009 83.2775041,45.0859541 L63.9378393,61.3008901 C62.0296273,62.9007903 59.234977,62.8526701 57.3829763,61.1880238 L39.3430635,44.9730879 C39.1532346,44.8024627 38.9795127,44.6205996 38.822,44.4294121 L38.822,77.701 C38.822,80.4624237 41.0605763,82.701 43.822,82.701 L78.822,82.701 C81.5834237,82.701 83.822,80.4624237 83.822,77.701 L83.822,44.5538437 Z M80.076,31.701 C85.691,31.701 90.259,36.269 90.259,41.884 L90.259,80.13 C90.259,85.746 85.69,90.314 80.075,90.314 L42.006,90.314 C36.39,90.314 31.822,85.745 31.822,80.13 L31.822,41.885 C31.822,36.269 36.391,31.701 42.006,31.701 L80.076,31.701 Z" id="Shape"/></svg>